<?xml version="1.0" encoding="utf-8"?>
<!-- Uploaded to: SVG Repo, www.svgrepo.com, Generator: SVG Repo Mixer Tools -->
<svg width="800px" height="800px" viewBox="0 0 1024 1024" class="icon"  version="1.1" xmlns="http://www.w3.org/2000/svg"><path d="M512 64l100.266667 76.8 123.733333-17.066667 46.933333 117.333334 117.333334 46.933333-17.066667 123.733333L960 512l-76.8 100.266667 17.066667 123.733333-117.333334 46.933333-46.933333 117.333334-123.733333-17.066667L512 960l-100.266667-76.8-123.733333 17.066667-46.933333-117.333334-117.333334-46.933333 17.066667-123.733333L64 512l76.8-100.266667-17.066667-123.733333 117.333334-46.933333 46.933333-117.333334 123.733333 17.066667z" fill="#8BC34A" /><path d="M738.133333 311.466667L448 601.6l-119.466667-119.466667-59.733333 59.733334 179.2 179.2 349.866667-349.866667z" fill="#CCFF90" /></svg>